<svg xmlns="http://www.w3.org/2000/svg" version="1.1" xmlns:xlink="http://www.w3.org/1999/xlink" xmlns:svgjs="http://svgjs.dev/svgjs" viewBox="0 0 12.130002876511139 11.225808008810018"><g transform="matrix(0.8522396737281531,0,0,0.8522396737281531,1.725531118379303,8.008726752363447)"><g transform="matrix(1,0,0,1,0,0)" clip-path="url(#SvgjsClipPath108450)"><path d=" M 0 -6.56166344238882 L 7.200952935033255 -6.56166344238882 L 7.200952935033255 -1.1392894926444335 L 0 -1.1392894926444335 Z" fill="url(#gradient-6bef7ab5-084a-4e23-9392-931897f61c8b)" transform="matrix(1,0,0,1,0,0)" fill-rule="nonzero" mask="url(#maskedMgText-849e860b-3159-4a4f-af21-27169a7a2e60)"></path></g><g><path d=" M 0.28875 0.2939999999999998 Q 0.3165 0.33599999999999985 0.357 0.3674999999999998 Q 0.3975 0.3989999999999999 0.4665 0.44399999999999984 Q 0.5415 0.4919999999999999 0.5865 0.5279999999999998 Q 0.6315000000000001 0.5639999999999998 0.663 0.6157499999999998 Q 0.6945 0.6674999999999999 0.6945 0.7349999999999999 Q 0.6945 0.8129999999999998 0.6525 0.8737499999999999 Q 0.6105 0.9344999999999999 0.53625 0.9682499999999998 Q 0.462 1.0019999999999998 0.3705 1.0019999999999998 Q 0.303 1.0019999999999998 0.2295 0.9832499999999998 Q 0.156 0.9644999999999999 0.1305 0.9419999999999998 Q 0.123 0.9359999999999998 0.11925000000000001 0.9307499999999999 Q 0.1155 0.9254999999999999 0.1155 0.9134999999999999 L 0.111 0.6749999999999998 L 0.111 0.6734999999999999 Q 0.111 0.6674999999999999 0.11850000000000001 0.6667499999999998 Q 0.126 0.6659999999999999 0.1275 0.6719999999999999 Q 0.17250000000000001 0.7634999999999998 0.20625000000000002 0.8204999999999999 Q 0.24 0.8774999999999998 0.29175 0.9209999999999998 Q 0.3435 0.9644999999999999 0.40950000000000003 0.9644999999999999 Q 0.46950000000000003 0.9644999999999999 0.5085000000000001 0.9322499999999999 Q 0.5475 0.8999999999999999 0.5475 0.8219999999999998 Q 0.5475 0.7559999999999999 0.51825 0.7064999999999999 Q 0.489 0.6569999999999998 0.447 0.6224999999999998 Q 0.405 0.5879999999999999 0.3315 0.5399999999999998 Q 0.2595 0.4934999999999999 0.21975 0.4604999999999999 Q 0.18 0.4274999999999999 0.1515 0.3809999999999999 Q 0.123 0.3344999999999999 0.123 0.27149999999999985 Q 0.123 0.19199999999999984 0.16875 0.13724999999999987 Q 0.2145 0.0824999999999999 0.28650000000000003 0.0562499999999998 Q 0.3585 0.029999999999999805 0.438 0.029999999999999805 Q 0.4905 0.029999999999999805 0.5445 0.03974999999999984 Q 0.5985 0.04949999999999988 0.6315000000000001 0.06299999999999983 Q 0.645 0.06899999999999984 0.6495 0.07574999999999987 Q 0.654 0.0824999999999999 0.654 0.09299999999999986 L 0.654 0.3134999999999999 Q 0.654 0.31799999999999984 0.6465 0.3202499999999998 Q 0.639 0.3224999999999999 0.6375000000000001 0.31799999999999984 L 0.6255000000000001 0.28949999999999987 Q 0.588 0.19499999999999984 0.5377500000000001 0.1289999999999999 Q 0.4875 0.06299999999999983 0.3975 0.06299999999999983 Q 0.3375 0.06299999999999983 0.29925 0.09749999999999981 Q 0.261 0.1319999999999999 0.261 0.19799999999999984 Q 0.261 0.2519999999999999 0.28875 0.2939999999999998 M 1.6785219726562501 0.9749999999999999 Q 1.6785219726562501 0.9839999999999999 1.67402197265625 0.9839999999999999 Q 1.62752197265625 0.9839999999999999 1.60202197265625 0.9824999999999999 L 1.5030219726562501 0.9809999999999999 L 1.40252197265625 0.9824999999999999 Q 1.37702197265625 0.9839999999999999 1.33052197265625 0.9839999999999999 Q 1.32602197265625 0.9839999999999999 1.32602197265625 0.9749999999999999 Q 1.32602197265625 0.9659999999999999 1.33052197265625 0.9659999999999999 Q 1.37252197265625 0.9659999999999999 1.39202197265625 0.9584999999999999 Q 1.41152197265625 0.9509999999999998 1.41902197265625 0.9292499999999999 Q 1.42652197265625 0.9074999999999999 1.42652197265625 0.8624999999999998 L 1.42652197265625 0.6494999999999999 L 1.06502197265625 0.6494999999999999 L 1.06502197265625 0.8624999999999998 Q 1.06502197265625 0.9074999999999999 1.07252197265625 0.9284999999999999 Q 1.08002197265625 0.9494999999999999 1.10027197265625 0.9577499999999999 Q 1.12052197265625 0.9659999999999999 1.1625219726562501 0.9659999999999999 Q 1.16552197265625 0.9659999999999999 1.16552197265625 0.9749999999999999 Q 1.16552197265625 0.9839999999999999 1.1625219726562501 0.9839999999999999 Q 1.1160219726562501 0.9839999999999999 1.09052197265625 0.9824999999999999 L 0.99002197265625 0.9809999999999999 L 0.89252197265625 0.9824999999999999 Q 0.86552197265625 0.9839999999999999 0.81752197265625 0.9839999999999999 Q 0.81452197265625 0.9839999999999999 0.81452197265625 0.9749999999999999 Q 0.81452197265625 0.9659999999999999 0.81752197265625 0.9659999999999999 Q 0.86102197265625 0.9659999999999999 0.88127197265625 0.9584999999999999 Q 0.90152197265625 0.9509999999999998 0.9090219726562501 0.9292499999999999 Q 0.91652197265625 0.9074999999999999 0.91652197265625 0.8624999999999998 L 0.91652197265625 0.40349999999999986 Q 0.91652197265625 0.3584999999999998 0.9090219726562501 0.3374999999999999 Q 0.90152197265625 0.3164999999999999 0.88127197265625 0.3082499999999999 Q 0.86102197265625 0.2999999999999998 0.82052197265625 0.2999999999999998 Q 0.81602197265625 0.2999999999999998 0.81602197265625 0.2909999999999998 Q 0.81602197265625 0.2819999999999998 0.82052197265625 0.2819999999999998 L 0.89252197265625 0.28349999999999986 Q 0.9525219726562499 0.28649999999999987 0.99002197265625 0.28649999999999987 Q 1.03052197265625 0.28649999999999987 1.09052197265625 0.28349999999999986 L 1.1625219726562501 0.2819999999999998 Q 1.16552197265625 0.2819999999999998 1.16552197265625 0.2909999999999998 Q 1.16552197265625 0.2999999999999998 1.1625219726562501 0.2999999999999998 Q 1.10252197265625 0.2999999999999998 1.08377197265625 0.32099999999999984 Q 1.06502197265625 0.34199999999999986 1.06502197265625 0.40649999999999986 L 1.06502197265625 0.6104999999999998 L 1.42652197265625 0.6104999999999998 L 1.42652197265625 0.40649999999999986 Q 1.42652197265625 0.3614999999999998 1.41902197265625 0.3397499999999999 Q 1.41152197265625 0.31799999999999984 1.39202197265625 0.30899999999999983 Q 1.37252197265625 0.2999999999999998 1.33052197265625 0.2999999999999998 Q 1.32602197265625 0.2999999999999998 1.32602197265625 0.2909999999999998 Q 1.32602197265625 0.2819999999999998 1.33052197265625 0.2819999999999998 L 1.40252197265625 0.28349999999999986 Q 1.46252197265625 0.28649999999999987 1.5030219726562501 0.28649999999999987 Q 1.5390219726562502 0.28649999999999987 1.60202197265625 0.28349999999999986 L 1.67402197265625 0.2819999999999998 Q 1.6785219726562501 0.2819999999999998 1.6785219726562501 0.2909999999999998 Q 1.6785219726562501 0.2999999999999998 1.67402197265625 0.2999999999999998 Q 1.6320219726562502 0.2999999999999998 1.61177197265625 0.3082499999999999 Q 1.59152197265625 0.3164999999999999 1.58402197265625 0.3374999999999999 Q 1.57652197265625 0.3584999999999998 1.57652197265625 0.40349999999999986 L 1.57652197265625 0.8624999999999998 Q 1.57652197265625 0.9074999999999999 1.58402197265625 0.9292499999999999 Q 1.59152197265625 0.9509999999999998 1.61102197265625 0.9584999999999999 Q 1.63052197265625 0.9659999999999999 1.67402197265625 0.9659999999999999 Q 1.6785219726562501 0.9659999999999999 1.6785219726562501 0.9749999999999999 M 1.942550537109375 0.9517499999999999 Q 1.858550537109375 0.9014999999999999 1.812050537109375 0.8167499999999999 Q 1.765550537109375 0.7319999999999999 1.765550537109375 0.6329999999999998 Q 1.765550537109375 0.5189999999999999 1.824800537109375 0.43499999999999983 Q 1.884050537109375 0.35099999999999987 1.976300537109375 0.3074999999999999 Q 2.068550537109375 0.2639999999999999 2.166050537109375 0.2639999999999999 Q 2.272550537109375 0.2639999999999999 2.354300537109375 0.31574999999999986 Q 2.436050537109375 0.3674999999999998 2.481050537109375 0.4507499999999999 Q 2.526050537109375 0.5339999999999998 2.526050537109375 0.6255 Q 2.526050537109375 0.7259999999999999 2.473550537109375 0.8122499999999999 Q 2.421050537109375 0.8984999999999999 2.331050537109375 0.9502499999999998 Q 2.241050537109375 1.0019999999999998 2.133050537109375 1.0019999999999998 Q 2.026550537109375 1.0019999999999998 1.942550537109375 0.9517499999999999 M 2.303300537109375 0.8849999999999999 Q 2.355050537109375 0.8024999999999999 2.355050537109375 0.6569999999999998 Q 2.355050537109375 0.5579999999999998 2.325050537109375 0.47699999999999987 Q 2.295050537109375 0.3959999999999999 2.240300537109375 0.3487499999999999 Q 2.185550537109375 0.3014999999999999 2.113550537109375 0.3014999999999999 Q 2.026550537109375 0.3014999999999999 1.9815505371093751 0.37349999999999983 Q 1.936550537109375 0.4454999999999999 1.936550537109375 0.5864999999999998 Q 1.936550537109375 0.6929999999999998 1.967300537109375 0.7807499999999998 Q 1.998050537109375 0.8684999999999998 2.050550537109375 0.9179999999999999 Q 2.103050537109375 0.9674999999999999 2.167550537109375 0.9674999999999999 Q 2.251550537109375 0.9674999999999999 2.303300537109375 0.8849999999999999 M 2.871825439453125 0.9254999999999999 Q 2.881575439453125 0.9479999999999998 2.909325439453125 0.9569999999999999 Q 2.937075439453125 0.9659999999999999 2.995575439453125 0.9659999999999999 Q 3.000075439453125 0.9659999999999999 3.000075439453125 0.9749999999999999 Q 3.000075439453125 0.9839999999999999 2.995575439453125 0.9839999999999999 Q 2.938575439453125 0.9839999999999999 2.907075439453125 0.9824999999999999 L 2.788575439453125 0.9809999999999999 L 2.691075439453125 0.9824999999999999 Q 2.664075439453125 0.9839999999999999 2.616075439453125 0.9839999999999999 Q 2.613075439453125 0.9839999999999999 2.613075439453125 0.9749999999999999 Q 2.613075439453125 0.9659999999999999 2.616075439453125 0.9659999999999999 Q 2.658075439453125 0.9659999999999999 2.678325439453125 0.9577499999999999 Q 2.698575439453125 0.9494999999999999 2.706075439453125 0.9284999999999999 Q 2.713575439453125 0.9074999999999999 2.713575439453125 0.8624999999999998 L 2.713575439453125 0.40349999999999986 Q 2.713575439453125 0.3599999999999999 2.705325439453125 0.33824999999999983 Q 2.697075439453125 0.3164999999999999 2.676825439453125 0.3082499999999999 Q 2.656575439453125 0.2999999999999998 2.616075439453125 0.2999999999999998 Q 2.613075439453125 0.2999999999999998 2.613075439453125 0.2909999999999998 Q 2.613075439453125 0.2819999999999998 2.616075439453125 0.2819999999999998 L 2.689575439453125 0.28349999999999986 Q 2.7525754394531248 0.28649999999999987 2.787075439453125 0.28649999999999987 Q 2.826075439453125 0.28649999999999987 2.868075439453125 0.2819999999999998 Q 2.884575439453125 0.28049999999999986 2.915325439453125 0.2789999999999999 Q 2.946075439453125 0.27749999999999986 2.968575439453125 0.27749999999999986 Q 3.097575439453125 0.27749999999999986 3.165075439453125 0.3194999999999999 Q 3.232575439453125 0.3614999999999998 3.232575439453125 0.4454999999999999 Q 3.232575439453125 0.5204999999999999 3.195825439453125 0.5729999999999998 Q 3.159075439453125 0.6255 3.099825439453125 0.6517499999999998 Q 3.040575439453125 0.6779999999999999 2.974575439453125 0.6779999999999999 Q 2.946075439453125 0.6779999999999999 2.9400754394531248 0.6749999999999998 Q 2.935575439453125 0.6719999999999999 2.935575439453125 0.6644999999999999 Q 2.935575439453125 0.6554999999999999 2.946075439453125 0.6554999999999999 L 2.967075439453125 0.6569999999999998 Q 3.012075439453125 0.6569999999999998 3.038325439453125 0.6127499999999999 Q 3.064575439453125 0.5684999999999998 3.064575439453125 0.47999999999999987 Q 3.064575439453125 0.3869999999999999 3.031575439453125 0.3457499999999999 Q 2.998575439453125 0.3044999999999999 2.934075439453125 0.3044999999999999 Q 2.896575439453125 0.3044999999999999 2.879325439453125 0.32474999999999987 Q 2.862075439453125 0.34499999999999986 2.862075439453125 0.40649999999999986 L 2.862075439453125 0.8564999999999998 Q 2.862075439453125 0.9029999999999999 2.871825439453125 0.9254999999999999 M 3.578337890625 0.9254999999999999 Q 3.588087890625 0.9479999999999998 3.615837890625 0.9569999999999999 Q 3.643587890625 0.9659999999999999 3.702087890625 0.9659999999999999 Q 3.706587890625 0.9659999999999999 3.706587890625 0.9749999999999999 Q 3.706587890625 0.9839999999999999 3.702087890625 0.9839999999999999 Q 3.645087890625 0.9839999999999999 3.613587890625 0.9824999999999999 L 3.495087890625 0.9809999999999999 L 3.397587890625 0.9824999999999999 Q 3.370587890625 0.9839999999999999 3.322587890625 0.9839999999999999 Q 3.319587890625 0.9839999999999999 3.319587890625 0.9749999999999999 Q 3.319587890625 0.9659999999999999 3.322587890625 0.9659999999999999 Q 3.364587890625 0.9659999999999999 3.384837890625 0.9577499999999999 Q 3.405087890625 0.9494999999999999 3.412587890625 0.9284999999999999 Q 3.420087890625 0.9074999999999999 3.420087890625 0.8624999999999998 L 3.420087890625 0.40349999999999986 Q 3.420087890625 0.3599999999999999 3.411837890625 0.33824999999999983 Q 3.403587890625 0.3164999999999999 3.383337890625 0.3082499999999999 Q 3.363087890625 0.2999999999999998 3.322587890625 0.2999999999999998 Q 3.319587890625 0.2999999999999998 3.319587890625 0.2909999999999998 Q 3.319587890625 0.2819999999999998 3.322587890625 0.2819999999999998 L 3.396087890625 0.28349999999999986 Q 3.4590878906249998 0.28649999999999987 3.493587890625 0.28649999999999987 Q 3.532587890625 0.28649999999999987 3.574587890625 0.2819999999999998 Q 3.591087890625 0.28049999999999986 3.621837890625 0.2789999999999999 Q 3.652587890625 0.27749999999999986 3.675087890625 0.27749999999999986 Q 3.804087890625 0.27749999999999986 3.871587890625 0.3194999999999999 Q 3.939087890625 0.3614999999999998 3.939087890625 0.4454999999999999 Q 3.939087890625 0.5204999999999999 3.902337890625 0.5729999999999998 Q 3.865587890625 0.6255 3.806337890625 0.6517499999999998 Q 3.747087890625 0.6779999999999999 3.681087890625 0.6779999999999999 Q 3.652587890625 0.6779999999999999 3.6465878906249998 0.6749999999999998 Q 3.642087890625 0.6719999999999999 3.642087890625 0.6644999999999999 Q 3.642087890625 0.6554999999999999 3.652587890625 0.6554999999999999 L 3.673587890625 0.6569999999999998 Q 3.718587890625 0.6569999999999998 3.744837890625 0.6127499999999999 Q 3.771087890625 0.5684999999999998 3.771087890625 0.47999999999999987 Q 3.771087890625 0.3869999999999999 3.738087890625 0.3457499999999999 Q 3.705087890625 0.3044999999999999 3.640587890625 0.3044999999999999 Q 3.603087890625 0.3044999999999999 3.585837890625 0.32474999999999987 Q 3.568587890625 0.34499999999999986 3.568587890625 0.40649999999999986 L 3.568587890625 0.8564999999999998 Q 3.568587890625 0.9029999999999999 3.578337890625 0.9254999999999999 M 4.294600341796875 0.9292499999999999 Q 4.302100341796875 0.9509999999999998 4.321600341796875 0.9584999999999999 Q 4.341100341796875 0.9659999999999999 4.384600341796875 0.9659999999999999 Q 4.387600341796875 0.9659999999999999 4.387600341796875 0.9749999999999999 Q 4.387600341796875 0.9839999999999999 4.384600341796875 0.9839999999999999 Q 4.338100341796875 0.9839999999999999 4.312600341796875 0.9824999999999999 L 4.210600341796875 0.9809999999999999 L 4.113100341796875 0.9824999999999999 Q 4.086100341796875 0.9839999999999999 4.038100341796875 0.9839999999999999 Q 4.035100341796875 0.9839999999999999 4.035100341796875 0.9749999999999999 Q 4.035100341796875 0.9659999999999999 4.038100341796875 0.9659999999999999 Q 4.081600341796875 0.9659999999999999 4.101850341796875 0.9584999999999999 Q 4.122100341796875 0.9509999999999998 4.129600341796875 0.9292499999999999 Q 4.137100341796875 0.9074999999999999 4.137100341796875 0.8624999999999998 L 4.137100341796875 0.40349999999999986 Q 4.137100341796875 0.3584999999999998 4.129600341796875 0.3374999999999999 Q 4.122100341796875 0.3164999999999999 4.101850341796875 0.3082499999999999 Q 4.081600341796875 0.2999999999999998 4.038100341796875 0.2999999999999998 Q 4.035100341796875 0.2999999999999998 4.035100341796875 0.2909999999999998 Q 4.035100341796875 0.2819999999999998 4.038100341796875 0.2819999999999998 L 4.113100341796875 0.28349999999999986 Q 4.173100341796875 0.28649999999999987 4.210600341796875 0.28649999999999987 Q 4.251100341796875 0.28649999999999987 4.314100341796875 0.28349999999999986 L 4.384600341796875 0.2819999999999998 Q 4.387600341796875 0.2819999999999998 4.387600341796875 0.2909999999999998 Q 4.387600341796875 0.2999999999999998 4.384600341796875 0.2999999999999998 Q 4.342600341796875 0.2999999999999998 4.322350341796875 0.30899999999999983 Q 4.302100341796875 0.31799999999999984 4.294600341796875 0.3397499999999999 Q 4.287100341796875 0.3614999999999998 4.287100341796875 0.40649999999999986 L 4.287100341796875 0.8624999999999998 Q 4.287100341796875 0.9074999999999999 4.294600341796875 0.9292499999999999 M 5.287568115234375 0.9749999999999999 Q 5.287568115234375 0.9839999999999999 5.284568115234375 0.9839999999999999 Q 5.247068115234375 0.9839999999999999 5.226068115234375 0.9824999999999999 L 5.148068115234375 0.9809999999999999 L 5.058068115234375 0.9824999999999999 Q 5.0355681152343745 0.9839999999999999 4.998068115234375 0.9839999999999999 Q 4.995068115234375 0.9839999999999999 4.995068115234375 0.9749999999999999 Q 4.995068115234375 0.9659999999999999 4.998068115234375 0.9659999999999999 Q 5.032568115234375 0.9659999999999999 5.049068115234375 0.9569999999999999 Q 5.065568115234375 0.9479999999999998 5.071568115234375 0.9262499999999999 Q 5.077568115234375 0.9044999999999999 5.077568115234375 0.8594999999999999 L 5.077568115234375 0.5609999999999999 Q 5.077568115234375 0.4199999999999998 5.036318115234375 0.3667499999999999 Q 4.995068115234375 0.3134999999999999 4.923068115234375 0.3134999999999999 Q 4.863068115234375 0.3134999999999999 4.811318115234375 0.3434999999999999 Q 4.759568115234375 0.37349999999999983 4.714568115234375 0.44099999999999984 L 4.714568115234375 0.8594999999999999 Q 4.714568115234375 0.9044999999999999 4.719818115234375 0.9262499999999999 Q 4.725068115234375 0.9479999999999998 4.740818115234375 0.9569999999999999 Q 4.756568115234375 0.9659999999999999 4.789568115234375 0.9659999999999999 Q 4.792568115234375 0.9659999999999999 4.792568115234375 0.9749999999999999 Q 4.792568115234375 0.9839999999999999 4.789568115234375 0.9839999999999999 Q 4.746068115234375 0.9839999999999999 4.720568115234375 0.9824999999999999 L 4.633568115234375 0.9809999999999999 L 4.551068115234375 0.9824999999999999 Q 4.527068115234375 0.9839999999999999 4.483568115234375 0.9839999999999999 Q 4.480568115234375 0.9839999999999999 4.480568115234375 0.9749999999999999 Q 4.480568115234375 0.9659999999999999 4.483568115234375 0.9659999999999999 Q 4.518068115234375 0.9659999999999999 4.535318115234375 0.9584999999999999 Q 4.552568115234375 0.9509999999999998 4.558568115234375 0.9292499999999999 Q 4.564568115234375 0.9074999999999999 4.564568115234375 0.8624999999999998 L 4.564568115234375 0.40349999999999986 Q 4.564568115234375 0.3584999999999998 4.558568115234375 0.3374999999999999 Q 4.552568115234375 0.3164999999999999 4.536818115234375 0.3082499999999999 Q 4.521068115234375 0.2999999999999998 4.488068115234375 0.2999999999999998 Q 4.483568115234375 0.2999999999999998 4.483568115234375 0.2909999999999998 Q 4.483568115234375 0.2819999999999998 4.488068115234375 0.2819999999999998 L 4.585568115234375 0.28349999999999986 L 4.686068115234375 0.2819999999999998 Q 4.704068115234375 0.2819999999999998 4.709318115234375 0.2872499999999999 Q 4.714568115234375 0.29249999999999987 4.714568115234375 0.3104999999999999 L 4.714568115234375 0.3929999999999999 Q 4.771568115234375 0.32699999999999985 4.837568115234375 0.2954999999999999 Q 4.903568115234375 0.2639999999999999 4.983068115234375 0.2639999999999999 Q 5.088068115234375 0.2639999999999999 5.157068115234375 0.3232499999999998 Q 5.226068115234375 0.38249999999999984 5.226068115234375 0.5264999999999999 L 5.226068115234375 0.8624999999999998 Q 5.226068115234375 0.9074999999999999 5.230568115234375 0.9292499999999999 Q 5.235068115234375 0.9509999999999998 5.247068115234375 0.9584999999999999 Q 5.259068115234375 0.9659999999999999 5.284568115234375 0.9659999999999999 Q 5.287568115234375 0.9659999999999999 5.287568115234375 0.9749999999999999 M 5.555344482421875 0.9517499999999999 Q 5.466094482421875 0.9014999999999999 5.419594482421875 0.8189999999999998 Q 5.373094482421875 0.7364999999999999 5.373094482421875 0.6449999999999998 Q 5.373094482421875 0.5279999999999998 5.426344482421875 0.44174999999999986 Q 5.479594482421875 0.3554999999999998 5.577094482421875 0.30974999999999986 Q 5.674594482421875 0.2639999999999999 5.806594482421875 0.2639999999999999 Q 5.872594482421875 0.2639999999999999 5.933344482421875 0.2759999999999999 Q 5.994094482421875 0.2879999999999998 6.034594482421875 0.3104999999999999 Q 6.045094482421875 0.31499999999999984 6.047344482421875 0.32099999999999984 Q 6.049594482421875 0.32699999999999985 6.051094482421875 0.3434999999999999 L 6.058594482421875 0.4844999999999999 Q 6.058594482421875 0.4889999999999999 6.050344482421875 0.48974999999999985 Q 6.042094482421875 0.4904999999999999 6.040594482421875 0.4859999999999999 Q 5.9250944824218745 0.2969999999999998 5.772094482421875 0.2969999999999998 Q 5.665594482421875 0.2969999999999998 5.604844482421875 0.38249999999999984 Q 5.544094482421875 0.46799999999999986 5.544094482421875 0.6255 Q 5.544094482421875 0.7784999999999999 5.613094482421875 0.8729999999999999 Q 5.682094482421875 0.9674999999999999 5.800594482421875 0.9674999999999999 Q 5.860594482421875 0.9674999999999999 5.888344482421875 0.9547499999999999 Q 5.916094482421875 0.9419999999999998 5.925844482421875 0.9067499999999998 Q 5.935594482421875 0.8714999999999998 5.935594482421875 0.7949999999999999 Q 5.935594482421875 0.7559999999999999 5.929594482421875 0.7402499999999999 Q 5.923594482421875 0.7244999999999999 5.9040944824218755 0.71925 Q 5.884594482421875 0.7139999999999999 5.836594482421875 0.7139999999999999 Q 5.827594482421875 0.7139999999999999 5.827594482421875 0.7019999999999998 Q 5.827594482421875 0.6974999999999998 5.829844482421875 0.6937499999999999 Q 5.832094482421875 0.69 5.835094482421875 0.69 Q 5.913094482421875 0.6959999999999998 5.992594482421875 0.6959999999999998 Q 6.028594482421875 0.6959999999999998 6.1125944824218745 0.6929999999999998 Q 6.115594482421875 0.6929999999999998 6.117844482421875 0.6967499999999999 Q 6.120094482421875 0.7004999999999999 6.120094482421875 0.7034999999999998 Q 6.120094482421875 0.7139999999999999 6.1125944824218745 0.7139999999999999 Q 6.0900944824218755 0.7124999999999999 6.081094482421875 0.7184999999999999 Q 6.072094482421875 0.7244999999999999 6.069094482421875 0.7432499999999999 Q 6.0660944824218745 0.7619999999999999 6.0660944824218745 0.8099999999999998 Q 6.0660944824218745 0.8774999999999998 6.069844482421875 0.9044999999999999 Q 6.073594482421875 0.9314999999999999 6.073594482421875 0.9419999999999998 Q 6.073594482421875 0.9509999999999998 6.070594482421875 0.9532499999999999 Q 6.067594482421875 0.9554999999999999 6.055594482421875 0.9599999999999999 Q 5.955094482421875 1.0019999999999998 5.764594482421875 1.0019999999999998 Q 5.644594482421875 1.0019999999999998 5.555344482421875 0.9517499999999999 M 7.473158935546875 0.08399999999999985 Q 7.477658935546875 0.0764999999999999 7.476908935546875 0.07424999999999982 Q 7.476158935546875 0.07199999999999984 7.465658935546875 0.07199999999999984 Q 7.294658935546875 0.07199999999999984 7.205408935546875 0.08474999999999988 Q 7.116158935546875 0.09749999999999981 7.059158935546875 0.13874999999999982 Q 7.002158935546875 0.17999999999999983 6.960158935546875 0.2669999999999999 Q 6.958658935546875 0.26849999999999985 6.954158935546875 0.26849999999999985 Q 6.940658935546875 0.26849999999999985 6.942158935546875 0.26249999999999984 L 7.002158935546875 0.0014999999999998348 Q 7.002158935546875 -1.1102230246251565e-16 7.008158935546875 -1.1102230246251565e-16 Q 7.023158935546875 -1.1102230246251565e-16 7.020158935546875 0.0044999999999998375 Q 7.018658935546875 0.008999999999999897 7.018658935546875 0.016499999999999848 Q 7.018658935546875 0.034499999999999864 7.035908935546875 0.04049999999999987 Q 7.053158935546875 0.046499999999999875 7.105658935546875 0.046499999999999875 L 7.653158935546875 0.046499999999999875 Q 7.660658935546875 0.046499999999999875 7.664408935546875 0.053999999999999826 Q 7.668158935546875 0.06149999999999989 7.663658935546875 0.06599999999999984 L 7.144658935546875 0.9434999999999999 Q 7.138658935546875 0.9509999999999998 7.140158935546875 0.9532499999999999 Q 7.141658935546875 0.9554999999999999 7.150658935546875 0.9554999999999999 L 7.4536589355468745 0.9554999999999999 Q 7.507658935546875 0.9554999999999999 7.558658935546875 0.9277499999999999 Q 7.609658935546875 0.8999999999999999 7.645658935546875 0.8534999999999999 Q 7.681658935546875 0.8069999999999999 7.690658935546875 0.7544999999999998 Q 7.692158935546875 0.7499999999999999 7.699658935546875 0.7499999999999999 Q 7.707158935546875 0.7499999999999999 7.707158935546875 0.7544999999999998 L 7.686158935546875 0.9719999999999999 Q 7.686158935546875 0.9764999999999999 7.682408935546875 0.9817499999999999 Q 7.678658935546875 0.9869999999999999 7.672658935546875 0.9869999999999999 Q 7.449158935546875 0.9839999999999999 6.954158935546875 0.9839999999999999 Q 6.948158935546875 0.9839999999999999 6.945158935546875 0.9772499999999998 Q 6.942158935546875 0.9704999999999999 6.946658935546875 0.9644999999999999 L 7.473158935546875 0.08399999999999985 M 7.986129638671875 0.9517499999999999 Q 7.902129638671875 0.9014999999999999 7.855629638671875 0.8167499999999999 Q 7.809129638671875 0.7319999999999999 7.809129638671875 0.6329999999999998 Q 7.809129638671875 0.5189999999999999 7.868379638671875 0.43499999999999983 Q 7.927629638671875 0.35099999999999987 8.019879638671876 0.3074999999999999 Q 8.112129638671876 0.2639999999999999 8.209629638671874 0.2639999999999999 Q 8.316129638671875 0.2639999999999999 8.397879638671874 0.31574999999999986 Q 8.479629638671875 0.3674999999999998 8.524629638671875 0.4507499999999999 Q 8.569629638671875 0.5339999999999998 8.569629638671875 0.6255 Q 8.569629638671875 0.7259999999999999 8.517129638671875 0.8122499999999999 Q 8.464629638671875 0.8984999999999999 8.374629638671875 0.9502499999999998 Q 8.284629638671875 1.0019999999999998 8.176629638671875 1.0019999999999998 Q 8.070129638671874 1.0019999999999998 7.986129638671875 0.9517499999999999 M 8.346879638671876 0.8849999999999999 Q 8.398629638671874 0.8024999999999999 8.398629638671874 0.6569999999999998 Q 8.398629638671874 0.5579999999999998 8.368629638671875 0.47699999999999987 Q 8.338629638671875 0.3959999999999999 8.283879638671875 0.3487499999999999 Q 8.229129638671875 0.3014999999999999 8.157129638671876 0.3014999999999999 Q 8.070129638671874 0.3014999999999999 8.025129638671874 0.37349999999999983 Q 7.980129638671875 0.4454999999999999 7.980129638671875 0.5864999999999998 Q 7.980129638671875 0.6929999999999998 8.010879638671875 0.7807499999999998 Q 8.041629638671875 0.8684999999999998 8.094129638671875 0.9179999999999999 Q 8.146629638671875 0.9674999999999999 8.211129638671874 0.9674999999999999 Q 8.295129638671876 0.9674999999999999 8.346879638671876 0.8849999999999999 M 9.463654541015625 0.9749999999999999 Q 9.463654541015625 0.9839999999999999 9.460654541015625 0.9839999999999999 Q 9.423154541015625 0.9839999999999999 9.402154541015625 0.9824999999999999 L 9.324154541015625 0.9809999999999999 L 9.234154541015625 0.9824999999999999 Q 9.211654541015625 0.9839999999999999 9.174154541015625 0.9839999999999999 Q 9.171154541015625 0.9839999999999999 9.171154541015625 0.9749999999999999 Q 9.171154541015625 0.9659999999999999 9.174154541015625 0.9659999999999999 Q 9.208654541015624 0.9659999999999999 9.225154541015625 0.9569999999999999 Q 9.241654541015626 0.9479999999999998 9.247654541015624 0.9262499999999999 Q 9.253654541015624 0.9044999999999999 9.253654541015624 0.8594999999999999 L 9.253654541015624 0.5609999999999999 Q 9.253654541015624 0.4199999999999998 9.212404541015625 0.3667499999999999 Q 9.171154541015625 0.3134999999999999 9.099154541015626 0.3134999999999999 Q 9.039154541015625 0.3134999999999999 8.987404541015625 0.3434999999999999 Q 8.935654541015625 0.37349999999999983 8.890654541015625 0.44099999999999984 L 8.890654541015625 0.8594999999999999 Q 8.890654541015625 0.9044999999999999 8.895904541015625 0.9262499999999999 Q 8.901154541015625 0.9479999999999998 8.916904541015626 0.9569999999999999 Q 8.932654541015625 0.9659999999999999 8.965654541015626 0.9659999999999999 Q 8.968654541015624 0.9659999999999999 8.968654541015624 0.9749999999999999 Q 8.968654541015624 0.9839999999999999 8.965654541015626 0.9839999999999999 Q 8.922154541015624 0.9839999999999999 8.896654541015625 0.9824999999999999 L 8.809654541015625 0.9809999999999999 L 8.727154541015626 0.9824999999999999 Q 8.703154541015625 0.9839999999999999 8.659654541015625 0.9839999999999999 Q 8.656654541015625 0.9839999999999999 8.656654541015625 0.9749999999999999 Q 8.656654541015625 0.9659999999999999 8.659654541015625 0.9659999999999999 Q 8.694154541015624 0.9659999999999999 8.711404541015625 0.9584999999999999 Q 8.728654541015626 0.9509999999999998 8.734654541015624 0.9292499999999999 Q 8.740654541015624 0.9074999999999999 8.740654541015624 0.8624999999999998 L 8.740654541015624 0.40349999999999986 Q 8.740654541015624 0.3584999999999998 8.734654541015624 0.3374999999999999 Q 8.728654541015626 0.3164999999999999 8.712904541015625 0.3082499999999999 Q 8.697154541015625 0.2999999999999998 8.664154541015625 0.2999999999999998 Q 8.659654541015625 0.2999999999999998 8.659654541015625 0.2909999999999998 Q 8.659654541015625 0.2819999999999998 8.664154541015625 0.2819999999999998 L 8.761654541015625 0.28349999999999986 L 8.862154541015625 0.2819999999999998 Q 8.880154541015624 0.2819999999999998 8.885404541015625 0.2872499999999999 Q 8.890654541015625 0.29249999999999987 8.890654541015625 0.3104999999999999 L 8.890654541015625 0.3929999999999999 Q 8.947654541015625 0.32699999999999985 9.013654541015626 0.2954999999999999 Q 9.079654541015625 0.2639999999999999 9.159154541015624 0.2639999999999999 Q 9.264154541015625 0.2639999999999999 9.333154541015626 0.3232499999999998 Q 9.402154541015625 0.38249999999999984 9.402154541015625 0.5264999999999999 L 9.402154541015625 0.8624999999999998 Q 9.402154541015625 0.9074999999999999 9.406654541015625 0.9292499999999999 Q 9.411154541015625 0.9509999999999998 9.423154541015625 0.9584999999999999 Q 9.435154541015624 0.9659999999999999 9.460654541015625 0.9659999999999999 Q 9.463654541015625 0.9659999999999999 9.463654541015625 0.9749999999999999 M 9.708180908203126 0.5804999999999998 Q 9.708180908203126 0.7469999999999999 9.781680908203125 0.8459999999999999 Q 9.855180908203126 0.9449999999999998 9.988680908203126 0.9449999999999998 Q 10.026180908203125 0.9449999999999998 10.065180908203125 0.9344999999999999 Q 10.104180908203125 0.9239999999999999 10.134180908203126 0.9029999999999999 L 10.135680908203126 0.9029999999999999 Q 10.140180908203124 0.9029999999999999 10.143930908203124 0.9082499999999999 Q 10.147680908203125 0.9134999999999999 10.144680908203124 0.9179999999999999 Q 10.039680908203126 1.0019999999999998 9.913680908203125 1.0019999999999998 Q 9.796680908203125 1.0019999999999998 9.714930908203126 0.9517499999999999 Q 9.633180908203125 0.9014999999999999 9.591180908203125 0.8204999999999999 Q 9.549180908203125 0.7394999999999998 9.549180908203125 0.6449999999999998 Q 9.549180908203125 0.5414999999999999 9.600180908203125 0.4552499999999998 Q 9.651180908203125 0.3689999999999999 9.738180908203125 0.31874999999999987 Q 9.825180908203125 0.26849999999999985 9.927180908203125 0.26849999999999985 Q 10.038180908203126 0.26849999999999985 10.096680908203124 0.32699999999999985 Q 10.155180908203125 0.38549999999999984 10.155180908203125 0.47999999999999987 Q 10.155180908203125 0.4994999999999999 10.151430908203125 0.5069999999999999 Q 10.147680908203125 0.5144999999999998 10.137180908203124 0.5144999999999998 L 9.711180908203126 0.5159999999999998 Q 9.708180908203126 0.5549999999999999 9.708180908203126 0.5804999999999998 M 9.771930908203124 0.3524999999999998 Q 9.730680908203125 0.40049999999999986 9.715680908203124 0.4859999999999999 L 9.994680908203126 0.4814999999999998 Q 9.991680908203126 0.3044999999999999 9.876180908203125 0.3044999999999999 Q 9.813180908203124 0.3044999999999999 9.771930908203124 0.3524999999999998" fill="#382d5e" fill-rule="nonzero"></path></g><g><path d=" M 0.52725 1.8150374999999996 Q 0.52725 1.8195374999999996 0.52425 1.8195374999999996 Q 0.51 1.8195374999999996 0.48 1.8180374999999995 Q 0.45 1.8165374999999997 0.4365 1.8165374999999997 Q 0.42 1.8165374999999997 0.3945 1.8180374999999995 Q 0.3705 1.8195374999999996 0.35775 1.8195374999999996 Q 0.35475 1.8195374999999996 0.35475 1.8150374999999996 Q 0.35475 1.8105374999999997 0.35775 1.8105374999999997 Q 0.3855 1.8105374999999997 0.39825 1.8052874999999995 Q 0.41100000000000003 1.8000374999999995 0.41100000000000003 1.7872874999999997 Q 0.41100000000000003 1.7767874999999995 0.40125 1.7550374999999996 L 0.315 1.5712874999999995 L 0.17325000000000002 1.5712874999999995 L 0.10875 1.7242874999999995 Q 0.09825 1.7497874999999996 0.09825 1.7662874999999996 Q 0.09825 1.8105374999999997 0.17175 1.8105374999999997 Q 0.17550000000000002 1.8105374999999997 0.17550000000000002 1.8150374999999996 Q 0.17550000000000002 1.8195374999999996 0.17175 1.8195374999999996 Q 0.15825 1.8195374999999996 0.13275 1.8180374999999995 Q 0.10425 1.8165374999999997 0.08325 1.8165374999999997 Q 0.06375 1.8165374999999997 0.03825 1.8180374999999995 Q 0.01575 1.8195374999999996 0.00075 1.8195374999999996 Q -0.003 1.8195374999999996 -0.003 1.8150374999999996 Q -0.003 1.8105374999999997 0.00075 1.8105374999999997 Q 0.021750000000000002 1.8105374999999997 0.036375 1.8026624999999996 Q 0.051000000000000004 1.7947874999999995 0.064125 1.7749124999999997 Q 0.07725 1.7550374999999996 0.093 1.7175374999999995 L 0.25125000000000003 1.3440374999999996 Q 0.25275000000000003 1.3417874999999997 0.2565 1.3417874999999997 Q 0.26025 1.3417874999999997 0.261 1.3440374999999996 L 0.438 1.7167874999999997 Q 0.4635 1.7722874999999996 0.4815 1.7914124999999996 Q 0.4995 1.8105374999999997 0.52425 1.8105374999999997 Q 0.52725 1.8105374999999997 0.52725 1.8150374999999996 M 0.18 1.5555374999999996 L 0.3075 1.5555374999999996 L 0.24 1.4130374999999995 L 0.18 1.5555374999999996 M 0.655894775390625 1.7557874999999996 Q 0.655894775390625 1.7775374999999995 0.660019775390625 1.7880374999999995 Q 0.664144775390625 1.7985374999999997 0.675769775390625 1.8030374999999996 Q 0.687394775390625 1.8075374999999996 0.710644775390625 1.8075374999999996 L 0.760144775390625 1.8075374999999996 Q 0.7998947753906249 1.8075374999999996 0.8235197753906249 1.7827874999999995 Q 0.8471447753906249 1.7580374999999995 0.855394775390625 1.7145374999999996 Q 0.855394775390625 1.7130374999999995 0.8583947753906249 1.7130374999999995 Q 0.860644775390625 1.7130374999999995 0.862519775390625 1.7137874999999996 Q 0.8643947753906249 1.7145374999999996 0.8643947753906249 1.7160374999999997 Q 0.859144775390625 1.7505374999999996 0.859144775390625 1.8082874999999996 Q 0.859144775390625 1.8142874999999996 0.856519775390625 1.8169124999999995 Q 0.853894775390625 1.8195374999999996 0.847894775390625 1.8195374999999996 L 0.554644775390625 1.8195374999999996 Q 0.553144775390625 1.8195374999999996 0.553144775390625 1.8150374999999996 Q 0.553144775390625 1.8105374999999997 0.554644775390625 1.8105374999999997 Q 0.579394775390625 1.8105374999999997 0.590644775390625 1.8067874999999995 Q 0.601894775390625 1.8030374999999996 0.605644775390625 1.7921624999999997 Q 0.6093947753906249 1.7812874999999997 0.6093947753906249 1.7587874999999995 L 0.6093947753906249 1.5292874999999997 Q 0.6093947753906249 1.5067874999999995 0.605269775390625 1.4962874999999995 Q 0.6011447753906249 1.4857874999999996 0.589894775390625 1.4816624999999997 Q 0.578644775390625 1.4775374999999995 0.554644775390625 1.4775374999999995 Q 0.553144775390625 1.4775374999999995 0.553144775390625 1.4730374999999996 Q 0.553144775390625 1.4685374999999996 0.554644775390625 1.4685374999999996 L 0.5883947753906249 1.4692874999999996 Q 0.616894775390625 1.4707874999999997 0.6326447753906249 1.4707874999999997 Q 0.651394775390625 1.4707874999999997 0.6798947753906249 1.4692874999999996 L 0.7113947753906249 1.4685374999999996 Q 0.713644775390625 1.4685374999999996 0.713644775390625 1.4730374999999996 Q 0.713644775390625 1.4775374999999995 0.7113947753906249 1.4775374999999995 Q 0.686644775390625 1.4775374999999995 0.675394775390625 1.4816624999999997 Q 0.664144775390625 1.4857874999999996 0.660019775390625 1.4966624999999996 Q 0.655894775390625 1.5075374999999995 0.655894775390625 1.5300374999999997 L 0.655894775390625 1.7557874999999996 M 1.005029296875 1.7557874999999996 Q 1.005029296875 1.7775374999999995 1.009154296875 1.7880374999999995 Q 1.013279296875 1.7985374999999997 1.024904296875 1.8030374999999996 Q 1.036529296875 1.8075374999999996 1.059779296875 1.8075374999999996 L 1.109279296875 1.8075374999999996 Q 1.149029296875 1.8075374999999996 1.172654296875 1.7827874999999995 Q 1.196279296875 1.7580374999999995 1.204529296875 1.7145374999999996 Q 1.204529296875 1.7130374999999995 1.207529296875 1.7130374999999995 Q 1.209779296875 1.7130374999999995 1.211654296875 1.7137874999999996 Q 1.213529296875 1.7145374999999996 1.213529296875 1.7160374999999997 Q 1.208279296875 1.7505374999999996 1.208279296875 1.8082874999999996 Q 1.208279296875 1.8142874999999996 1.2056542968750001 1.8169124999999995 Q 1.203029296875 1.8195374999999996 1.197029296875 1.8195374999999996 L 0.903779296875 1.8195374999999996 Q 0.9022792968750001 1.8195374999999996 0.9022792968750001 1.8150374999999996 Q 0.9022792968750001 1.8105374999999997 0.903779296875 1.8105374999999997 Q 0.9285292968750001 1.8105374999999997 0.9397792968750001 1.8067874999999995 Q 0.951029296875 1.8030374999999996 0.9547792968750001 1.7921624999999997 Q 0.958529296875 1.7812874999999997 0.958529296875 1.7587874999999995 L 0.958529296875 1.5292874999999997 Q 0.958529296875 1.5067874999999995 0.9544042968750001 1.4962874999999995 Q 0.950279296875 1.4857874999999996 0.939029296875 1.4816624999999997 Q 0.927779296875 1.4775374999999995 0.903779296875 1.4775374999999995 Q 0.9022792968750001 1.4775374999999995 0.9022792968750001 1.4730374999999996 Q 0.9022792968750001 1.4685374999999996 0.903779296875 1.4685374999999996 L 0.937529296875 1.4692874999999996 Q 0.966029296875 1.4707874999999997 0.981779296875 1.4707874999999997 Q 1.000529296875 1.4707874999999997 1.029029296875 1.4692874999999996 L 1.060529296875 1.4685374999999996 Q 1.062779296875 1.4685374999999996 1.062779296875 1.4730374999999996 Q 1.062779296875 1.4775374999999995 1.060529296875 1.4775374999999995 Q 1.035779296875 1.4775374999999995 1.024529296875 1.4816624999999997 Q 1.013279296875 1.4857874999999996 1.009154296875 1.4966624999999996 Q 1.005029296875 1.5075374999999995 1.005029296875 1.5300374999999997 L 1.005029296875 1.7557874999999996 M 1.5416704101562502 1.7925374999999997 Q 1.5457954101562503 1.8030374999999996 1.5570454101562503 1.8067874999999995 Q 1.5682954101562503 1.8105374999999997 1.5937954101562504 1.8105374999999997 Q 1.5952954101562502 1.8105374999999997 1.5952954101562502 1.8150374999999996 Q 1.5952954101562502 1.8195374999999996 1.5937954101562504 1.8195374999999996 Q 1.5727954101562502 1.8195374999999996 1.5607954101562502 1.8187874999999996 L 1.5135454101562502 1.8180374999999995 L 1.4692954101562503 1.8187874999999996 Q 1.4565454101562503 1.8195374999999996 1.4347954101562503 1.8195374999999996 Q 1.4332954101562503 1.8195374999999996 1.4332954101562503 1.8150374999999996 Q 1.4332954101562503 1.8105374999999997 1.4347954101562503 1.8105374999999997 Q 1.4602954101562502 1.8105374999999997 1.4715454101562502 1.8067874999999995 Q 1.4827954101562504 1.8030374999999996 1.4869204101562503 1.7925374999999997 Q 1.4910454101562503 1.7820374999999995 1.4910454101562503 1.7587874999999995 L 1.4910454101562503 1.5292874999999997 Q 1.4910454101562503 1.5067874999999995 1.4869204101562503 1.4962874999999995 Q 1.4827954101562504 1.4857874999999996 1.4711704101562504 1.4816624999999997 Q 1.4595454101562504 1.4775374999999995 1.4347954101562503 1.4775374999999995 Q 1.4332954101562503 1.4775374999999995 1.4332954101562503 1.4730374999999996 Q 1.4332954101562503 1.4685374999999996 1.4347954101562503 1.4685374999999996 L 1.4692954101562503 1.4692874999999996 Q 1.4962954101562502 1.4707874999999997 1.5135454101562502 1.4707874999999997 Q 1.5330454101562503 1.4707874999999997 1.5615454101562503 1.4692874999999996 L 1.5937954101562504 1.4685374999999996 Q 1.5952954101562502 1.4685374999999996 1.5952954101562502 1.4730374999999996 Q 1.5952954101562502 1.4775374999999995 1.5937954101562504 1.4775374999999995 Q 1.5697954101562503 1.4775374999999995 1.5577954101562503 1.4820374999999997 Q 1.5457954101562503 1.4865374999999996 1.5416704101562502 1.4974124999999996 Q 1.5375454101562502 1.5082874999999996 1.5375454101562502 1.5307874999999995 L 1.5375454101562502 1.7587874999999995 Q 1.5375454101562502 1.7820374999999995 1.5416704101562502 1.7925374999999997 M 2.0659427490234377 1.8150374999999996 Q 2.0659427490234377 1.8195374999999996 2.064442749023438 1.8195374999999996 Q 2.045692749023438 1.8195374999999996 2.035192749023438 1.8187874999999996 L 1.996192749023438 1.8180374999999995 L 1.948942749023438 1.8187874999999996 Q 1.937692749023438 1.8195374999999996 1.9189427490234379 1.8195374999999996 Q 1.9174427490234378 1.8195374999999996 1.9174427490234378 1.8150374999999996 Q 1.9174427490234378 1.8105374999999997 1.9189427490234379 1.8105374999999997 Q 1.9429427490234379 1.8105374999999997 1.9545677490234379 1.8060374999999995 Q 1.9661927490234379 1.8015374999999996 1.9703177490234378 1.7906624999999996 Q 1.9744427490234377 1.7797874999999996 1.9744427490234377 1.7572874999999997 L 1.9744427490234377 1.6080374999999996 Q 1.9744427490234377 1.5360374999999995 1.949317749023438 1.5079124999999995 Q 1.9241927490234378 1.4797874999999996 1.8769427490234378 1.4797874999999996 Q 1.8431927490234379 1.4797874999999996 1.814317749023438 1.4936624999999997 Q 1.785442749023438 1.5075374999999995 1.7531927490234378 1.5420374999999995 L 1.7531927490234378 1.7572874999999997 Q 1.7531927490234378 1.7797874999999996 1.757317749023438 1.7906624999999996 Q 1.761442749023438 1.8015374999999996 1.7726927490234379 1.8060374999999995 Q 1.7839427490234379 1.8105374999999997 1.8071927490234378 1.8105374999999997 Q 1.809442749023438 1.8105374999999997 1.809442749023438 1.8150374999999996 Q 1.809442749023438 1.8195374999999996 1.8071927490234378 1.8195374999999996 Q 1.7869427490234377 1.8195374999999996 1.7749427490234377 1.8187874999999996 L 1.7291927490234378 1.8180374999999995 L 1.6849427490234379 1.8187874999999996 Q 1.6729427490234379 1.8195374999999996 1.651942749023438 1.8195374999999996 Q 1.650442749023438 1.8195374999999996 1.650442749023438 1.8150374999999996 Q 1.650442749023438 1.8105374999999997 1.651942749023438 1.8105374999999997 Q 1.6759427490234378 1.8105374999999997 1.6875677490234378 1.8064124999999995 Q 1.6991927490234378 1.8022874999999996 1.703692749023438 1.7917874999999996 Q 1.7081927490234379 1.7812874999999997 1.7081927490234379 1.7587874999999995 L 1.7081927490234379 1.5292874999999997 Q 1.7081927490234379 1.5067874999999995 1.704067749023438 1.4962874999999995 Q 1.6999427490234378 1.4857874999999996 1.6886927490234378 1.4816624999999997 Q 1.6774427490234378 1.4775374999999995 1.6541927490234378 1.4775374999999995 Q 1.651942749023438 1.4775374999999995 1.651942749023438 1.4730374999999996 Q 1.651942749023438 1.4685374999999996 1.6541927490234378 1.4685374999999996 L 1.702942749023438 1.4692874999999996 L 1.739692749023438 1.4685374999999996 Q 1.7486927490234379 1.4685374999999996 1.750942749023438 1.4711624999999997 Q 1.7531927490234378 1.4737874999999996 1.7531927490234378 1.4827874999999997 L 1.7531927490234378 1.5270374999999996 Q 1.7884427490234378 1.4917874999999996 1.8229427490234378 1.4756624999999997 Q 1.8574427490234378 1.4595374999999997 1.896442749023438 1.4595374999999997 Q 1.9519427490234378 1.4595374999999997 1.9856927490234377 1.4899124999999995 Q 2.0194427490234377 1.5202874999999996 2.0194427490234377 1.5832874999999995 L 2.0194427490234377 1.7587874999999995 Q 2.0194427490234377 1.7812874999999997 2.022817749023438 1.7921624999999997 Q 2.026192749023438 1.8030374999999996 2.035567749023438 1.8067874999999995 Q 2.0449427490234378 1.8105374999999997 2.064442749023438 1.8105374999999997 Q 2.0659427490234377 1.8105374999999997 2.0659427490234377 1.8150374999999996 M 2.3655629882812503 1.8037874999999997 Q 2.3246879882812506 1.7790374999999996 2.3021879882812506 1.7370374999999996 Q 2.2796879882812506 1.6950374999999995 2.2796879882812506 1.6462874999999997 Q 2.2796879882812506 1.5877874999999997 2.3100629882812505 1.5454124999999996 Q 2.3404379882812507 1.5030374999999996 2.3873129882812503 1.4812874999999996 Q 2.4341879882812503 1.4595374999999997 2.4829379882812503 1.4595374999999997 Q 2.5354379882812506 1.4595374999999997 2.5755629882812503 1.4854124999999996 Q 2.6156879882812505 1.5112874999999995 2.6370629882812504 1.5525374999999997 Q 2.6584379882812503 1.5937874999999995 2.6584379882812503 1.6387874999999996 Q 2.6584379882812503 1.6890374999999995 2.6314379882812506 1.7329124999999996 Q 2.6044379882812505 1.7767874999999995 2.5586879882812505 1.8026624999999996 Q 2.5129379882812506 1.8285374999999995 2.4589379882812503 1.8285374999999995 Q 2.4064379882812506 1.8285374999999995 2.3655629882812503 1.8037874999999997 M 2.5718129882812506 1.7715374999999995 Q 2.6066879882812506 1.7302874999999995 2.6066879882812506 1.6575374999999997 Q 2.6066879882812506 1.6072874999999995 2.5890629882812504 1.5660374999999995 Q 2.5714379882812506 1.5247874999999995 2.5376879882812506 1.5000374999999995 Q 2.5039379882812507 1.4752874999999996 2.4574379882812507 1.4752874999999996 Q 2.3974379882812507 1.4752874999999996 2.3644379882812503 1.5154124999999996 Q 2.3314379882812504 1.5555374999999996 2.3314379882812504 1.6275374999999996 Q 2.3314379882812504 1.6792874999999996 2.3490629882812506 1.7212874999999996 Q 2.3666879882812504 1.7632874999999997 2.4000629882812503 1.7880374999999995 Q 2.4334379882812507 1.8127874999999996 2.4784379882812506 1.8127874999999996 Q 2.5369379882812506 1.8127874999999996 2.5718129882812506 1.7715374999999995 M 3.1275827636718754 1.8150374999999996 Q 3.1275827636718754 1.8195374999999996 3.1260827636718758 1.8195374999999996 Q 3.1073327636718755 1.8195374999999996 3.0968327636718755 1.8187874999999996 L 3.0578327636718754 1.8180374999999995 L 3.0105827636718754 1.8187874999999996 Q 2.9993327636718754 1.8195374999999996 2.9805827636718756 1.8195374999999996 Q 2.9790827636718755 1.8195374999999996 2.9790827636718755 1.8150374999999996 Q 2.9790827636718755 1.8105374999999997 2.9805827636718756 1.8105374999999997 Q 3.0045827636718756 1.8105374999999997 3.0162077636718756 1.8060374999999995 Q 3.0278327636718756 1.8015374999999996 3.0319577636718757 1.7906624999999996 Q 3.0360827636718755 1.7797874999999996 3.0360827636718755 1.7572874999999997 L 3.0360827636718755 1.6080374999999996 Q 3.0360827636718755 1.5360374999999995 3.0109577636718754 1.5079124999999995 Q 2.9858327636718753 1.4797874999999996 2.9385827636718758 1.4797874999999996 Q 2.9048327636718754 1.4797874999999996 2.8759577636718756 1.4936624999999997 Q 2.8470827636718754 1.5075374999999995 2.8148327636718755 1.5420374999999995 L 2.8148327636718755 1.7572874999999997 Q 2.8148327636718755 1.7797874999999996 2.8189577636718757 1.7906624999999996 Q 2.8230827636718754 1.8015374999999996 2.8343327636718754 1.8060374999999995 Q 2.8455827636718753 1.8105374999999997 2.8688327636718753 1.8105374999999997 Q 2.8710827636718754 1.8105374999999997 2.8710827636718754 1.8150374999999996 Q 2.8710827636718754 1.8195374999999996 2.8688327636718753 1.8195374999999996 Q 2.8485827636718755 1.8195374999999996 2.8365827636718755 1.8187874999999996 L 2.7908327636718755 1.8180374999999995 L 2.7465827636718756 1.8187874999999996 Q 2.7345827636718756 1.8195374999999996 2.7135827636718757 1.8195374999999996 Q 2.7120827636718756 1.8195374999999996 2.7120827636718756 1.8150374999999996 Q 2.7120827636718756 1.8105374999999997 2.7135827636718757 1.8105374999999997 Q 2.7375827636718757 1.8105374999999997 2.7492077636718757 1.8064124999999995 Q 2.7608327636718757 1.8022874999999996 2.7653327636718754 1.7917874999999996 Q 2.7698327636718756 1.7812874999999997 2.7698327636718756 1.7587874999999995 L 2.7698327636718756 1.5292874999999997 Q 2.7698327636718756 1.5067874999999995 2.7657077636718754 1.4962874999999995 Q 2.7615827636718757 1.4857874999999996 2.7503327636718757 1.4816624999999997 Q 2.7390827636718758 1.4775374999999995 2.7158327636718758 1.4775374999999995 Q 2.7135827636718757 1.4775374999999995 2.7135827636718757 1.4730374999999996 Q 2.7135827636718757 1.4685374999999996 2.7158327636718758 1.4685374999999996 L 2.7645827636718754 1.4692874999999996 L 2.8013327636718754 1.4685374999999996 Q 2.810332763671876 1.4685374999999996 2.8125827636718754 1.4711624999999997 Q 2.8148327636718755 1.4737874999999996 2.8148327636718755 1.4827874999999997 L 2.8148327636718755 1.5270374999999996 Q 2.8500827636718755 1.4917874999999996 2.8845827636718755 1.4756624999999997 Q 2.9190827636718755 1.4595374999999997 2.9580827636718756 1.4595374999999997 Q 3.0135827636718755 1.4595374999999997 3.0473327636718754 1.4899124999999995 Q 3.0810827636718754 1.5202874999999996 3.0810827636718754 1.5832874999999995 L 3.0810827636718754 1.7587874999999995 Q 3.0810827636718754 1.7812874999999997 3.0844577636718755 1.7921624999999997 Q 3.0878327636718756 1.8030374999999996 3.0972077636718756 1.8067874999999995 Q 3.1065827636718755 1.8105374999999997 3.1260827636718758 1.8105374999999997 Q 3.1275827636718754 1.8105374999999997 3.1275827636718754 1.8150374999999996 M 3.442946411132813 1.7790374999999996 Q 3.4451964111328133 1.7790374999999996 3.4470714111328133 1.7816624999999995 Q 3.448946411132813 1.7842874999999996 3.4474464111328134 1.7865374999999997 Q 3.394196411132813 1.8285374999999995 3.331196411132813 1.8285374999999995 Q 3.277946411132813 1.8285374999999995 3.240071411132813 1.8034124999999996 Q 3.202196411132813 1.7782874999999996 3.183071411132813 1.7377874999999996 Q 3.1639464111328133 1.6972874999999996 3.1639464111328133 1.6507874999999996 Q 3.1639464111328133 1.5990374999999997 3.1886964111328133 1.5551624999999996 Q 3.213446411132813 1.5112874999999995 3.254696411132813 1.4857874999999996 Q 3.295946411132813 1.4602874999999995 3.344696411132813 1.4602874999999995 Q 3.394946411132813 1.4602874999999995 3.4204464111328132 1.4880374999999995 Q 3.4459464111328133 1.5157874999999996 3.4459464111328133 1.5630374999999996 Q 3.4459464111328133 1.5705374999999995 3.4440714111328132 1.5739124999999996 Q 3.442196411132813 1.5772874999999995 3.436946411132813 1.5772874999999995 L 3.218696411132813 1.5780374999999995 Q 3.214196411132813 1.5990374999999997 3.214196411132813 1.6245374999999995 Q 3.214196411132813 1.6755374999999995 3.231446411132813 1.7164124999999997 Q 3.248696411132813 1.7572874999999997 3.2813214111328133 1.7805374999999997 Q 3.313946411132813 1.8037874999999997 3.358196411132813 1.8037874999999997 Q 3.408446411132813 1.8037874999999997 3.442196411132813 1.7790374999999996 L 3.442946411132813 1.7790374999999996 M 3.2588214111328133 1.4996624999999995 Q 3.232196411132813 1.5240374999999995 3.220946411132813 1.5667874999999996 L 3.393446411132813 1.5637874999999997 Q 3.394196411132813 1.5210374999999996 3.3758214111328133 1.4981624999999996 Q 3.357446411132813 1.4752874999999996 3.321446411132813 1.4752874999999996 Q 3.285446411132813 1.4752874999999996 3.2588214111328133 1.4996624999999995" fill="#c84449" fill-rule="nonzero"></path></g></g><defs><clipPath id="SvgjsClipPath108450"><path d=" M 0 -7.450952935033255 h 7.200952935033255 v 7.200952935033255 h -7.200952935033255 Z"></path></clipPath><linearGradient id="gradient-6bef7ab5-084a-4e23-9392-931897f61c8b" x1="0" x2="1" y1="0" y2="1"><stop stop-color="#c84449" offset="0"></stop><stop stop-color="#382d5e" offset="1"></stop></linearGradient><mask id="maskedMgText-849e860b-3159-4a4f-af21-27169a7a2e60"><path d=" M 7.085148873391141 -3.30521433958885 C 7.07250981069326 -3.2696017099358485 7.060122809074825 -3.233953071557212 7.0501123833482975 -3.2060463091900977 C 6.9944789022422444 -3.182280550271007 6.935856696908488 -3.2116636703891555 6.899667927645325 -3.1611794370489052 L 6.767155817308577 -3.1629798733306544 C 6.760674246694279 -3.2457999422911223 6.754192676079981 -3.32898009850794 6.747999175270763 -3.410647888248089 C 6.7524282485238665 -3.416301258172781 6.7556690338310155 -3.4234309858485092 6.759810037279038 -3.4243312039893836 C 6.7868885989565495 -3.429660495383361 6.814867378774933 -3.431172861860031 6.841369800842283 -3.4387346942433776 C 6.861028399534288 -3.4465886212865766 6.879778303174248 -3.456549130303298 6.897291351753417 -3.4684418928922414 C 6.935856696908486 -3.496060585454276 6.962683197506552 -3.527820281464334 6.947055410580965 -3.581581308837368 C 6.943401939987021 -3.5924807479722083 6.943541532578147 -3.604295357275539 6.947451506562951 -3.6151054324035403 C 6.951338925462428 -3.625882545337145 6.958781317476538 -3.6350140809312497 6.9685526197850525 -3.640995706135095 C 7.000636394325827 -3.6549670916814696 7.001536612466701 -3.6813974962975493 6.995955259993279 -3.7104925466106184 C 6.998295827159552 -3.744340748707505 7.000348324520747 -3.778513029335107 7.002724900412655 -3.8123612314319937 C 7.000924464130904 -3.8378914179071995 6.999484115105506 -3.8634576131080394 6.998007757354472 -3.8889877995832443 C 6.998007757354472 -3.9213956526547324 7.007117964940123 -3.960285076340517 6.993002544491208 -3.9846269748697676 C 6.973040979390211 -4.011155869038222 6.9441879132427164 -4.029602911329244 6.9117308507330435 -4.036587565961052 C 6.863134528270805 -4.0460384287487825 6.81393289675472 -4.052054769115141 6.76449117161159 -4.054591928778545 C 6.746742663944939 -4.066807395696912 6.728259262186327 -4.077919082895973 6.709145760310612 -4.087863991265273 C 6.634067567361667 -4.122324341697954 6.633167349220791 -4.122900481308115 6.6387847104198485 -4.232222972335933 L 6.688260699442324 -4.181486677916237 C 6.722042245189742 -4.2221838355453585 6.737114346946878 -4.275230313368832 6.729778760099462 -4.327610086543011 C 6.745082468494331 -4.387024483840738 6.700323622530043 -4.4320353908844705 6.691789554554552 -4.495122678196966 L 6.764815250142304 -4.634728507483808 C 6.801616167741258 -4.636204865234842 6.8425220800626025 -4.6257983435263315 6.866972004768758 -4.66738842163474 C 6.904961210313669 -4.718484803310785 6.9025846344217605 -4.778475340218672 6.903484852562634 -4.837565658985684 C 6.93949357819762 -4.8646082119375595 6.92937512629419 -4.905982237692158 6.935568627103407 -4.942423068034764 C 6.953039392766319 -4.951934505658301 6.967515691378921 -4.966124021438782 6.9773747575656255 -4.9834009978073786 C 6.9872446268250865 -5.000738465865157 6.992141322407221 -5.020462305830845 6.991526186740176 -5.040402810487561 C 6.983280188569763 -5.118541745115481 7.020981324309593 -5.17406720004463 7.05807031171363 -5.232869449006563 C 7.077223712244859 -5.262837818944321 7.07045705901851 -5.302455482188915 7.042442524788047 -5.324367620845062 L 7.007117964940125 -5.383746009417154 C 7.010970898583068 -5.397105246627734 7.021521455194119 -5.413453208066017 7.017416460471731 -5.423355607615639 C 7.00991282995852 -5.440584574386334 6.998569070930705 -5.455869704629027 6.984252424161909 -5.468042436128656 C 6.970004316857128 -5.480189486682246 6.953147955560688 -5.488888749164181 6.934992487493249 -5.493464596426957 C 6.914359487704401 -5.5103886974754 6.894662714782063 -5.529077226079958 6.872877435772898 -5.543876812315937 C 6.838806126401174 -5.562152340531458 6.812459482453448 -5.592091127588989 6.7986634522391896 -5.628209247753075 C 6.8030925254922945 -5.631486041785858 6.810726375326912 -5.6341506874828475 6.8116265934677855 -5.6383276996565055 C 6.838993224950375 -5.7785096685535065 6.838993224950375 -5.7785096685535065 6.794234378986088 -5.892261232834428 C 6.7839358834544825 -5.918079489114713 6.7751137456739094 -5.944221823925713 6.764815250142304 -5.970076088931633 C 6.815227466031285 -6.020272252466803 6.806009232268728 -6.078462353092942 6.78746473856671 -6.137876750390668 C 6.782459525703446 -6.153612563493157 6.768056035449453 -6.170824734346681 6.77158489056168 -6.183607831947101 C 6.788653026512662 -6.244822665526577 6.810150235716749 -6.305101272239544 6.830459156974882 -6.370853205249029 L 6.692941833774871 -6.440962194060347 C 6.607546680946852 -6.478453833497781 6.518002507759988 -6.5056748753467035 6.4261891942708935 -6.522053844190336 C 6.387842076079956 -6.554839621410242 6.335519608658014 -6.566016740939786 6.2871234958685775 -6.5517610428392 L 6.117882485384143 -6.5517610428392 C 6.0569197128841115 -6.553525470395313 5.991563875856611 -6.571349789584632 5.936506534360717 -6.554425688536188 C 5.839030914066811 -6.5247184898873245 5.739502796411708 -6.5300837900069375 5.642063184843436 -6.514636046709528 C 5.576758874707566 -6.519890883623184 5.511035161375403 -6.515179854476153 5.447147952981255 -6.500664661163154 C 5.379703609866927 -6.487593493757654 5.30700199280989 -6.500664661163154 5.236893003998572 -6.488493711898529 C 5.22835893602308 -6.494723221433381 5.219248728437428 -6.506894170698006 5.211002730267017 -6.5064980747160215 C 5.140017479848171 -6.509269002706895 5.072244087730869 -6.476804078942612 5.029914849048672 -6.41975305466134 C 5.019513835179948 -6.421539719594916 5.008944049776652 -6.422143707332248 4.998407214118059 -6.421553490943089 C 4.974857507552779 -6.451260689591953 4.951883940597657 -6.426882782337067 4.928622303837456 -6.421553490943089 C 4.840292899854836 -6.421553490943089 4.751963495872214 -6.41946498485626 4.6615815945284 -6.4177005573001455 C 4.616935538040711 -6.422728625660707 4.5720558202289325 -6.4105039264060055 4.536127194416109 -6.383528276672544 C 4.518592516668958 -6.369266648528249 4.494412082593803 -6.366379014082173 4.4740121426957575 -6.376110479191737 C 4.415137876282554 -6.398363871634158 4.370379030318267 -6.3663161058190205 4.317950325793728 -6.344638852986759 C 4.265521621269187 -6.322961600154497 4.198401356685573 -6.365415887678146 4.147485018637703 -6.3149316543378955 L 4.045292255285613 -6.285224455689032 C 3.9834652733703413 -6.3095663542182825 3.9219263612601503 -6.32947917949443 3.865248627110682 -6.272441358088612 L 3.865248627110682 -6.208777931165956 C 3.865248627110682 -6.205501137133172 3.85642648933011 -6.2025484216311035 3.8517093462719267 -6.1995596974034 C 3.7359773020810816 -6.290445720906105 3.7359773020810816 -6.290445720906105 3.6379255421770145 -6.248279503187536 C 3.565086539601758 -6.251177981078603 3.4923115178334134 -6.241119446490082 3.4229894588617826 -6.2185723045386725 C 3.348248074550984 -6.200930555061713 3.272484242100359 -6.187942469498749 3.1961344873613715 -6.179682880852888 L 2.916094628098083 -6.131575223404546 C 2.833418303927812 -6.122498881396334 2.751259428197761 -6.109206354105896 2.6699389796573096 -6.09174957285225 C 2.627786820939514 -6.078247340437184 2.583777036891514 -6.071442956376754 2.539515375407398 -6.071584686496659 C 2.4064631341861227 -6.0783183181904015 2.2892907409698777 -6.028734302991025 2.174927028353162 -5.969031835888218 C 2.1057542664083533 -5.969031835888218 2.0347810681817955 -5.933383197509582 1.9688130828185013 -5.9798344535787145 C 1.9117032439614132 -5.967951574119169 1.8481118344900278 -5.981922959665543 1.7989239152726366 -5.937380166055066 C 1.7893627464782282 -5.936943109556273 1.7799258983007054 -5.9350363075435695 1.770945135454252 -5.9317267961303735 L 1.7018803996863492 -5.9317267961303735 C 1.6740245280627726 -5.935435607972676 1.6457999318547727 -5.935435607972676 1.6179440602311959 -5.931726796130373 C 1.5349079389169182 -5.9103376131031915 1.4539603236894694 -5.922508562367817 1.3706361325701115 -5.928125923566874 C 1.2982435733313449 -5.934292806656243 1.2267532195040898 -5.948433888469033 1.157464476810993 -5.9702921412854435 C 1.1257143249209942 -5.981171130587339 1.0933602284114237 -5.990200460382466 1.0605649961272479 -5.997334694237317 C 1.0468543561517003 -6.000869890472113 1.0323688044404018 -5.999884822439435 1.0192629878239172 -5.994526013637789 C 1.00609657582048 -5.989162316505558 0.9949836684750462 -5.9797396811059675 0.9875393005394941 -5.967627495588454 C 0.9581201716957105 -5.955744616128909 0.9542672380527669 -5.928017897389969 0.949262025189504 -5.9016955189507945 C 0.9231591342730919 -5.8961067046067255 0.8981172860650334 -5.886381715011363 0.8750840503814323 -5.872888538442806 C 0.8147102411100715 -5.8221641932205594 0.7805961147105234 -5.7467979302780785 0.7823255731457082 -5.667962880854099 C 0.7859512958693542 -5.60747153460114 0.77737945004109 -5.54686858459531 0.7571194652012181 -5.489755697686554 C 0.7495765794349762 -5.457354976699246 0.7465113042147147 -5.424073114920361 0.7480092576155666 -5.390839728367246 C 0.6691622929018384 -5.349307768338259 0.5809215121196509 -5.328853867929231 0.49184318344827505 -5.331461339795154 C 0.47020096740180506 -5.3326884269991 0.4484934823346902 -5.33088249998905 0.42735155583601525 -5.326096039675541 C 0.36332804165700994 -5.308559790291303 0.2997366321856245 -5.287998807953726 0.22613479698771277 -5.26534931952932 C 0.20611394553466056 -5.246048642588967 0.18256423896937957 -5.2059709309572275 0.14900410667757247 -5.194376121302762 C 0.07036104989076275 -5.167729664332873 0.043570558018333205 -5.100609399749258 0 -5.041807150787326 C 0.013827350643834668 -5.005546364072895 0.025926282457189975 -4.9746868862037115 0.03770113573983047 -4.943503329803814 L 0.03770113573983047 -4.908862935742957 C 0.03230098871895959 -4.881278154456365 0.045419950238088314 -4.853378496292351 0.07010898881131777 -4.839942234877594 C 0.07392671886665991 -4.829374930091158 0.07917264884234276 -4.8193797979204005 0.08570076701126683 -4.81023503622873 C 0.17438806582842536 -4.722876149817242 0.23248550327154893 -4.609207250472 0.25134090493220285 -4.486156505513855 C 0.25134090493220285 -4.476938271751298 0.26488018577095795 -4.469232404465411 0.27193789599541507 -4.4609503975693645 L 0.2743144718873243 -4.39469434240099 C 0.26311575821484356 -4.3602700006939425 0.25162897473728285 -4.325809650261261 0.24043026106480214 -4.29134929982858 C 0.21835691225055576 -4.222464607688851 0.19214255998828578 -4.154732194769442 0.17536249384238234 -4.08343491801217 C 0.15928018295805502 -4.034313115933948 0.1687325922204923 -3.9804073762544494 0.20056860178687264 -3.9396880852773046 C 0.22885031575126202 -3.9041965852864173 0.24444176476788715 -3.8602616565940413 0.24485933431790574 -3.814881842226443 C 0.24485933431790574 -3.8009104566800684 0.2628636971353986 -3.7884514376103633 0.2722619745261301 -3.775272244027959 C 0.271360188056208 -3.7644884462860304 0.271360188056208 -3.753648188698399 0.2722619745261301 -3.7428643909564707 C 0.26126696147358586 -3.73527466840406 0.25286999436664637 -3.724489342389458 0.24820814580195916 -3.711968904361653 C 0.24352584246450948 -3.6994197387493912 0.2427723033732927 -3.6857430042438066 0.24604762226386012 -3.6727554021451527 L 0.21835691225055576 -3.6133770135730607 C 0.2601237531099978 -3.534299640682824 0.31374968788331237 -3.4620819246282717 0.37737144465465344 -3.3992331222217995 C 0.41798928717091877 -3.321994405734753 0.4833811329240536 -3.2578628653788426 0.485145560480168 -3.1615755330308897 C 0.485145560480168 -3.136045346555685 0.523710905635238 -3.111379369495719 0.5440198268933703 -3.0864613313563085 C 0.5540302526198966 -3.0730660854200935 0.5613760326494337 -3.0540534782848208 0.573474964462789 -3.0472478291398093 C 0.6225131818006584 -3.0188854754038625 0.6609687863276315 -2.9753100418718192 0.6830135078444168 -2.9231257518760123 L 0.6305848033198769 -2.8865768953565007 L 0.5805326746872461 -2.8497399690319103 C 0.5604972260345542 -2.8218345946476417 0.5257138889541753 -2.808618911745516 0.49220327070462533 -2.816179836740103 C 0.4475391238804567 -2.8173172734234213 0.4039560393865891 -2.8023507655224478 0.3694135162893226 -2.774013619021534 C 0.3303321896438409 -2.743685529212521 0.29361716683580896 -2.7104253298621632 0.2595869031026139 -2.6745215100920667 C 0.24862889908851282 -2.655759754702216 0.2412996035025501 -2.635103356642444 0.2379816677216231 -2.6136307550433053 C 0.20175688973282702 -2.610353961010522 0.160526898880768 -2.619572194773079 0.13906569840231642 -2.576505758913634 C 0.12048519597466356 -2.5283981014652928 0.12757891492475593 -2.4969264752603153 0.1705373246072941 -2.439672601500687 C 0.1826362564206494 -2.40640053901396 0.1946991795083699 -2.3731284765272327 0.20705017240117018 -2.3395683442354263 C 0.23650530997058872 -2.2858073168623916 0.31147547674263 -2.3033435662466295 0.34337920765522756 -2.25048275701447 C 0.37528293856782535 -2.19762194778231 0.44420363943318875 -2.2095048272418554 0.5054184730126652 -2.1795095587879123 C 0.4992249722034474 -2.0903879628413216 0.567821594538096 -2.0630573400843675 0.6390828625697338 -2.0381393019449567 C 0.6685380001391523 -2.027732780236445 0.697957128982936 -2.0612929125282524 0.6930959510222128 -2.099894266408958 C 0.6904299398057199 -2.1108775938580484 0.6865784089080649 -2.1215387279728737 0.6816091675446521 -2.1316899711446506 C 0.7382262932661148 -2.192290214388457 0.7749100853717366 -2.268787042941702 0.7867186376731765 -2.3508750840848105 C 0.7893472746445307 -2.3698876912200837 0.8073156287363888 -2.3870998620736077 0.8179382027987098 -2.405212251068005 C 0.8300011258864302 -2.394805729359494 0.8408757610281961 -2.3755050524191414 0.853946928433696 -2.3755050524191414 C 0.9381713376939285 -2.3636221729595963 0.9590924072878556 -2.3089969361713223 0.9534750460887975 -2.234134795576186 L 0.7874028034602416 -2.115306000980732 C 0.8230514418388778 -2.083222226439959 0.8504180733214673 -2.0585922581056284 0.8757322074428626 -2.034826499186538 C 0.9038821518770144 -2.055604858632106 0.93340459933778 -2.0744563970066046 0.964097620151119 -2.091252172256561 C 1.0001063457861046 -2.1076001336948442 1.0347467398469612 -2.0526508183758554 1.0765528703091802 -2.0862109506676627 C 1.080153742872679 -2.0995701878782427 1.0845107986745122 -2.115882140590891 1.0886157933969005 -2.131329883888301 C 1.1131161719512925 -2.142168186947244 1.138675248732517 -2.15043446059934 1.1648822742918017 -2.1559958609482655 C 1.1896202688030368 -2.158660506645255 1.2161226908703866 -2.1262886622994026 1.2402485370458274 -2.1509546393593677 C 1.2697036746152461 -2.180661838008232 1.248206465411159 -2.21033302793146 1.2402485370458274 -2.242704872277313 C 1.2380882376283129 -2.2580770884656243 1.2380882376283129 -2.2736758859812283 1.2402485370458274 -2.28904810216954 L 1.2909128140142527 -2.3018311997699605 C 1.3074048103550764 -2.2454055266999378 1.3074048103550764 -2.2454055266999378 1.3433055098131574 -2.269423346698473 L 1.3945459263917428 -2.3029834789902797 C 1.3940949261310198 -2.286613902109295 1.3912189572455924 -2.2704016893205567 1.3860118584162513 -2.254875821541939 C 1.3653317036889592 -2.221867958425582 1.36465226002941 -2.1801168388561547 1.3842474308601367 -2.146453548654995 C 1.389746857490759 -2.131012412377664 1.3925365692758551 -2.1147370632733478 1.3924934290305484 -2.0983458912066544 C 1.3788963135046202 -2.099066396519872 1.3653003440564855 -2.0969067479432737 1.352595761026984 -2.092008355494896 C 1.33986956970931 -2.0870873090828534 1.3283148761578394 -2.079555905855037 1.3186755414788272 -2.069898997955015 C 1.2990516949854398 -2.0502764868599357 1.2885953558020136 -2.0232991317666964 1.2898685609708382 -1.995576988244403 C 1.243669365981151 -1.9777526690550844 1.1965339441249543 -1.9614047076168006 1.1509108887454267 -1.9412398212612096 C 1.1052878333658993 -1.9210749349056169 1.0428847118404685 -1.9275565055199149 1.015157993101529 -1.869222369991237 C 1.0416604151688789 -1.856439272390817 1.0740682682403664 -1.8502097628559646 1.0893719766352354 -1.830909085915612 C 1.1101975532502883 -1.80039203523574 1.1274848041689838 -1.767605453129982 1.1409004630189008 -1.7331814045422602 C 1.1695271656973865 -1.7377391495638776 1.1986947018643819 -1.7377391495638776 1.2273214045428675 -1.7331814045422602 C 1.2702141829731648 -1.7160010781465296 1.319283182479463 -1.7279320904049147 1.3494990106223752 -1.762888603191123 C 1.3757133628846452 -1.786942431915294 1.4016396453418354 -1.7646530307472377 1.42752991907339 -1.7578473816022253 L 1.5579895320489447 -1.7242872493104184 C 1.6006598719264034 -1.749493357254909 1.6427900809193372 -1.7756356920659084 1.6857484906018758 -1.7999055731438895 C 1.7090802012397373 -1.8165652602848468 1.7394189892574328 -1.8198285232624478 1.7657598789628144 -1.8085116585706507 C 1.8555656406964698 -1.765733292516288 1.9129995580842727 -1.808511658570651 1.9577584040485605 -1.8836618689708668 C 1.9603870410199145 -1.88809094222397 1.966868611634212 -1.8901794483107999 1.9715857546923952 -1.8931321638128682 C 1.9836656104975325 -1.8860479358962188 1.9932806240426522 -1.875427430738537 1.9991324298031596 -1.8627047906513052 C 2.0050299772290368 -1.849955793245074 2.006925717867432 -1.8357189065964654 2.0045697473740427 -1.8218708957812315 C 2.0019051016770537 -1.790399269576254 1.9983762465648252 -1.7588916346456407 1.9954235310627562 -1.7292204447224115 C 2.0575745915087422 -1.6950481640948096 2.1161607881168645 -1.665665043976662 2.175935272670942 -1.6775119147105713 C 2.2675054619607113 -1.6955162775280646 2.355978900845872 -1.7288963661916967 2.446216767287147 -1.7556508493384908 C 2.4500206386335837 -1.7239258249581004 2.4458752696927277 -1.6917528122827985 2.4341538441994275 -1.6620281626875273 C 2.4225335321392722 -1.6322237309061185 2.403599676579819 -1.6058228283209308 2.3790965027035327 -1.5852575596337362 C 2.3169454422575466 -1.534845343744757 2.2318568235820746 -1.5445676996662039 2.1638363408575856 -1.5098192794284415 C 2.158543058189243 -1.4682292013200327 2.1535378453259795 -1.4306000830314725 2.1485326324627168 -1.3909904848329866 C 2.1664404812074873 -1.3759802453482042 2.186203094917293 -1.363333624817435 2.207334881424649 -1.3533613665444255 C 2.22795564936444 -1.3445954377648297 2.2511520760848827 -1.3440670747117531 2.2721505875676242 -1.351885008793393 C 2.3445641348195814 -1.3973280205447454 2.411684399403195 -1.3581145183282457 2.480605100268559 -1.3453314207278257 C 2.484764714744127 -1.2915948557291586 2.5113813607893114 -1.2421004441736248 2.5539188656613905 -1.2090023854737684 L 2.680525544994002 -1.2090023854737684 C 2.7644258757235196 -1.2110908915605973 2.8456975694816835 -1.2072379579176538 2.921099840961344 -1.1606066582203471 C 2.971236438509107 -1.1349320240077247 3.029980485825406 -1.1320079341524707 3.0824189318060817 -1.1525767124037447 C 3.118931779599958 -1.1633793300942408 3.157533133480663 -1.1677363858960739 3.195198260494859 -1.1748661135718006 C 3.211114117225523 -1.1801954049657786 3.229370541122461 -1.1932665723712788 3.242909821961216 -1.189269603825796 C 3.2997315910132237 -1.173209712192592 3.350395867981649 -1.191358109912624 3.405453209477543 -1.2026288410363764 C 3.481683681646809 -1.218364654138865 3.55499744703964 -1.256641929488855 3.636593219328519 -1.2422384392348604 C 3.6530852156693423 -1.2125672493116317 3.661799327273009 -1.1789711082941894 3.6954674857417213 -1.1617589374406663 L 3.8294559538295045 -1.1876132024465855 C 3.8317421895538875 -1.2194011557994022 3.843592003001031 -1.2497537499892237 3.863448190828932 -1.2746823010319828 C 3.8832014774424994 -1.2995128808196847 3.9100587195563272 -1.3177275679408496 3.940434846236532 -1.3268949532027117 C 4.001109548931484 -1.347383918089018 4.043779888808943 -1.4210577707382006 4.120478474411462 -1.3898742143383025 C 4.163148814288921 -1.4195454042615312 4.1708906903004435 -1.4828127352022005 4.231169297013411 -1.494299518679762 C 4.24136570009237 -1.482770848232346 4.253164981174601 -1.4727663190516251 4.266205787056252 -1.4645923200308992 C 4.3251160621950895 -1.4348851213820364 4.3624931194042045 -1.4497567250692844 4.3839903286082915 -1.5094591921720921 C 4.389283611276634 -1.525483075079661 4.387807253525599 -1.5468722581068421 4.397817679252126 -1.5572427710897188 C 4.41487109670647 -1.5706728018409466 4.433702555783167 -1.5816759967197367 4.453775238888895 -1.5899386939662845 C 4.49338483708738 -1.6009213552849566 4.533858644701104 -1.6104276588525925 4.571559780440934 -1.623786896063172 C 4.589856376598316 -1.6319641191285879 4.607307922238736 -1.6419140328489377 4.623664406434759 -1.6534940947120358 C 4.682176366973634 -1.6482146625080878 4.740910787962028 -1.6608481513929116 4.792077216229588 -1.6897188727008303 C 4.893657831245885 -1.683777432971059 4.986992448091769 -1.7194260713496954 5.080939213273448 -1.7491332699985591 C 5.099756453205972 -1.7543351781797032 5.117208326940168 -1.763589587279597 5.132071603675127 -1.776247840401703 C 5.146970440603686 -1.7889572498060944 5.158957081631146 -1.8047265603381222 5.167216119894874 -1.8224830441170252 C 5.17780268523156 -1.8242474716731394 5.188821355275865 -1.8254357596190935 5.199876034045806 -1.8263359777599684 C 5.271893485315779 -1.8138769586902632 5.335916999494784 -1.8506778762892186 5.404225552024354 -1.86079632819265 C 5.495814006177021 -1.8534935677073623 5.5879255430040775 -1.8651132266444281 5.674831125171272 -1.8949326000946174 L 5.776123670382489 -1.8949326000946174 C 5.8507237904099085 -1.8871095316950854 5.923121601051005 -1.9231189874239196 5.961892685933382 -1.9873309900739926 C 5.9850635225365565 -2.0151053355041464 6.011450628036474 -2.0400298483492363 6.040499733994556 -2.061580982333334 L 6.107944077108886 -1.9391513151743802 C 6.119215521776219 -1.9357693130149753 6.130924666538318 -1.9340705769873128 6.142692497346646 -1.934110093585483 C 6.215718192934398 -1.9457049032399483 6.239916056561109 -2.026184405034142 6.3043356667221 -2.047573588061324 C 6.348139797019819 -2.05414014915555 6.39157602553332 -2.0629620063024525 6.434471201166941 -2.074003992677405 C 6.47246040671185 -2.08322222643996 6.51008952500041 -2.093304669617756 6.547826669465875 -2.103711191326267 C 6.593203843359399 -2.109652005236109 6.633134156772844 -2.1366146391848457 6.655600785291389 -2.1764848258345735 C 6.6464905777057375 -2.2248805530879956 6.634715724423096 -2.273708385049037 6.62852222361388 -2.324984810353257 C 6.619651226982162 -2.3594178145570335 6.634363680355197 -2.3955993350787907 6.6647470016026755 -2.4140703975742124 C 6.683867634914854 -2.423288631336769 6.712710624148476 -2.427429634784792 6.720380482708729 -2.442301238472042 C 6.736743721326944 -2.4807440316154596 6.74984895586698 -2.5204933643196146 6.759557976199593 -2.5611300330674966 L 6.641773434647554 -2.659145784245928 L 6.698595203699561 -2.7185241728180203 C 6.709181769036249 -2.7206126789048497 6.728050341268981 -2.7185241728180203 6.729526699020015 -2.725725917945018 C 6.753940615000536 -2.7913698247775973 6.776049972540418 -2.857589871220337 6.798987530769905 -2.9241339961937913 C 6.817914397629721 -2.914309884830727 6.83761765340291 -2.90606004974232 6.857897805908742 -2.899468019133826 C 6.903520861288268 -2.8881972880100752 6.928546925604584 -2.910270636824322 6.930311353160699 -2.9588824164315537 C 6.93329405028247 -2.9861809219145266 6.922214626422605 -3.013126840163675 6.900892224316914 -3.03043175426827 C 6.900892224316914 -3.1129997621492937 6.900892224316914 -3.1129997621492937 6.96477170359338 -3.132912587425441 L 7.092278601066866 -3.1231182140527247 C 7.107464256413817 -3.161269410341383 7.120531315684854 -3.2002301638808794 7.131420085832094 -3.239822493835716 C 7.132990091465013 -3.2472178981416002 7.132990091465013 -3.2548605256004253 7.131420085832094 -3.262255929906311 C 7.1298663231328785 -3.2696387228911568 7.12681471076082 -3.2766243415741836 7.122453913148982 -3.2827809035182534 C 7.118064910940095 -3.2888920052508284 7.11244757606822 -3.294018743190662 7.105961916808161 -3.2978325508336774 C 7.099621314808742 -3.301731022952295 7.092528887700869 -3.304246503154914 7.085148873391141 -3.30521433958885 Z" fill="#ffffff" transform="matrix(1,0,0,1,0,0)" fill-rule="nonzero"></path><path d=" M 7.163179781842155 -3.0153080895015765 C 7.156592401116942 -3.0166008246200335 7.149798312564409 -3.016391586385626 7.143302965291644 -3.0146959411657814 C 7.1301123879842105 -3.01120808906464 7.119206131660695 -3.0019430654888364 7.113631775368415 -2.9894898332212914 C 7.110827798541935 -2.9833350796091196 7.109449216548111 -2.976626801157027 7.109598798097295 -2.9698650777502236 C 7.10829072913247 -2.9588732214663986 7.111549912312444 -2.9478260765905944 7.118614933280764 -2.939304490605685 C 7.125679954249083 -2.9307829046207745 7.135931956703974 -2.925533320773217 7.146975855306412 -2.924782153255222 C 7.160328392349591 -2.9220946458938855 7.174178119350582 -2.925633284275957 7.184604973594972 -2.9343964829997624 C 7.1950702042692996 -2.9432115093677287 7.201030440189243 -2.956255307267918 7.20084490885635 -2.9699370952014936 C 7.201610500739163 -2.9809331906272756 7.198116379112246 -2.9918023586401548 7.19108654420927 -3.000292450911787 C 7.184083180164286 -3.0087268379996424 7.174077136381047 -3.014110735106236 7.163179781842157 -3.0153080895015765 Z" fill="#ffffff" transform="matrix(1,0,0,1,0,0)" fill-rule="nonzero"></path><path d=" M 7.136353281244089 -3.4762917950806687 C 7.141070424302274 -3.4762917950806687 7.1510808500288 -3.4926037477933174 7.149316422472685 -3.4970688297720556 C 7.146389994485883 -3.5076429593092864 7.139486763643616 -3.5166752239627197 7.130051754257968 -3.522274937716546 C 7.120693899266769 -3.5278124409848766 7.109544332533339 -3.5294790621999557 7.098976224034976 -3.5269200633234594 C 7.095735438727827 -3.522743051149801 7.089253868113529 -3.5177018295609033 7.090118077528768 -3.5144250355281197 C 7.091652719436977 -3.5034096934606715 7.09726886607133 -3.493372598445961 7.105853890631257 -3.486302220807195 C 7.114374104217049 -3.47920227829619 7.125282852980348 -3.4756218389146114 7.136353281244089 -3.4762917950806695 Z" fill="#ffffff" transform="matrix(1,0,0,1,0,0)" fill-rule="nonzero"></path><path d=" M 4.0968989452929465 -4.583236753619257 C 4.089360259221932 -4.63600755611636 4.070890478347946 -4.685762884185058 4.041489602670988 -4.7325027378253495 C 4.0120887269940315 -4.77924259146564 3.9743952966389573 -4.8195745619455685 3.9284093116057677 -4.853498649265135 C 3.882423326572578 -4.887422736584702 3.830406392682576 -4.914185072136803 3.772358509935763 -4.933785655921442 C 3.71431062718895 -4.95338623970608 3.6536242043172815 -4.963186531598399 3.590299241320758 -4.963186531598399 C 3.5330052271810457 -4.963186531598399 3.4794805560768416 -4.957155582741587 3.4297252280081443 -4.945093685027963 C 3.3799698999394474 -4.9330317873143406 3.3366224550311125 -4.914562006440354 3.2996828932831406 -4.889684342406006 C 3.2627433315351686 -4.864806678371657 3.233342455858211 -4.832767262569844 3.2114802662522686 -4.793566095000568 C 3.189618076646326 -4.754364927431292 3.1786869818433545 -4.707625073791 3.1786869818433545 -4.653346534079694 C 3.1786869818433545 -4.585498359440562 3.193387419681833 -4.531596754032806 3.2227882953587903 -4.491641717856428 C 3.252189171035748 -4.451686681680051 3.2898826013908216 -4.418893397271137 3.335868586424011 -4.393261864629687 C 3.3818545714572013 -4.367630331988236 3.4327407024365506 -4.347275879596497 3.4885269793620592 -4.332198507454468 C 3.544313256287568 -4.317121135312439 3.598591795998874 -4.300536025956205 3.651362598495977 -4.282443179385771 L 4.2733041993546905 -4.074375443825764 C 4.359245220564258 -4.044220699541706 4.439909161524116 -4.002757926151125 4.5152960222342635 -3.9499871236540214 C 4.59068288294441 -3.897216321156918 4.655892517458687 -3.8331374895532937 4.710924925777094 -3.757750628843146 C 4.765957334095502 -3.682363768132999 4.809304779003837 -3.5956688783163298 4.840967260502099 -3.4976659593931387 C 4.872629742000361 -3.3996630404699473 4.888460982749491 -3.2895982238331327 4.888460982749491 -3.167471509482694 C 4.888460982749491 -3.0016204159203705 4.857929304161882 -2.850092825892975 4.796865946986663 -2.712888739400507 C 4.735802589811444 -2.5756846529080395 4.650238502905427 -2.4580811502002096 4.540173686268612 -2.3600782312770185 C 4.4301088696317965 -2.262075312353827 4.29818186338904 -2.1859345830365786 4.144392667540339 -2.1316560433252727 C 3.990603471691639 -2.077377503613967 3.8202291664867065 -2.050238233758314 3.6332697519255417 -2.050238233758314 C 3.5020966142898855 -2.050238233758314 3.3780852284216936 -2.0649386715967926 3.261235594320966 -2.0943395472737496 C 3.1443859602202373 -2.123740422950707 3.0377135523153793 -2.16633399925194 2.941218370606391 -2.2221202761774492 C 2.8447231888974027 -2.277906553102958 2.760289904902038 -2.3446239248314384 2.6879185186202967 -2.4222723913628896 C 2.6155471323385555 -2.4999208578943413 2.559006986805945 -2.5877465506216626 2.5182980820224654 -2.685749469544854 L 2.285352682428111 -2.685749469544854 L 2.285352682428111 -3.3664928217574825 L 3.1040539897403088 -3.3664928217574825 L 3.1040539897403088 -3.226273260836609 C 3.1040539897403088 -3.1584250861974765 3.11498508454328 -3.0958539918080543 3.136847274149223 -3.0385599776683425 C 3.1587094637551654 -2.9812659635286307 3.1915027481640794 -2.931510635459934 3.235227127375965 -2.8892939934622515 C 3.27895150658785 -2.847077351464569 3.3339839149062573 -2.814284067055655 3.400324352331187 -2.7909141402355093 C 3.4666647897561167 -2.7675442134153636 3.544313256287568 -2.7558592500052908 3.6332697519255417 -2.7558592500052908 C 3.7689661012038065 -2.7558592500052908 3.8722461003767084 -2.7871447972000016 3.9431097494442464 -2.8497158915894243 C 4.013973398511785 -2.912286985978846 4.049405223045554 -2.999358810099066 4.049405223045554 -3.1109313639500837 C 4.049405223045554 -3.1682253780897955 4.036966391028379 -3.2160960346407395 4.0120887269940315 -3.254543333602914 C 3.987211062959682 -3.2929906325650893 3.95517164715787 -3.3254069826704526 3.9159704795885935 -3.351792383919004 C 3.876769312019317 -3.3781777851675554 3.8330449328074314 -3.400416909077049 3.7847973419529373 -3.4185097556474844 C 3.736549751098443 -3.4366026022179197 3.6890560288510503 -3.4531877115741523 3.6423161752107593 -3.4682650837161813 L 3.1244084421320486 -3.635623914492708 C 3.026405523208857 -3.665778658776767 2.9317950130176227 -3.7079953007744493 2.840576911558345 -3.762273840485755 C 2.7493588100990665 -3.816552380197061 2.668694869139209 -3.8844005548361933 2.5985850886787722 -3.9658183644031526 C 2.5284753082183355 -4.047236173970111 2.4726890312928265 -4.142600552768448 2.4312262579022454 -4.251911500798161 C 2.389763484511665 -4.361222448827874 2.3690320978163744 -4.485987703303168 2.3690320978163744 -4.626207264224041 C 2.3690320978163744 -4.7890428833579595 2.399186842100433 -4.934162590224993 2.459496330668551 -5.0615663848251415 C 2.5198058192366686 -5.18897017942529 2.6042391032320333 -5.296396455937249 2.712796182654645 -5.3838452143610205 C 2.821353262077257 -5.471293972784791 2.9502647938916087 -5.53763441020972 3.0995307780976997 -5.582866526635808 C 3.248796762303791 -5.628098643061897 3.4123862500448103 -5.650714701274941 3.590299241320758 -5.650714701274941 C 3.7305188022416313 -5.650714701274941 3.860184202663085 -5.634506526222259 3.979295442585117 -5.602090176116896 C 4.098406682507149 -5.569673826011533 4.205079090412008 -5.526326381103198 4.299312666299691 -5.472047841391892 C 4.393546242187376 -5.417769301680586 4.473456314540131 -5.355575141594715 4.5390428833579595 -5.285465361134278 C 4.604629452175788 -5.215355580673841 4.654761714548036 -5.142607260088549 4.6894396704747034 -5.067220399378402 L 4.915600252605144 -5.067220399378402 L 4.915600252605144 -4.38421544134447 L 4.0968989452929465 -4.38421544134447 L 4.0968989452929465 -4.583236753619257" fill="NA" transform="matrix(1,0,0,1,0,0)" fill-rule="nonzero"></path></mask></defs></svg>